<svg id="Lager_1" data-name="Lager 1" xmlns="http://www.w3.org/2000/svg" viewBox="0 0 400 400"><defs><style>.cls-1{fill:none;}.cls-2{fill:#4db969;}</style></defs><title>plantify</title><g id="Black_bakground" data-name="Black bakground"><rect class="cls-1" width="400" height="400"/></g><g id="Icons"><g id="on_Black" data-name="on Black"><path class="cls-2" d="M226.53,107.94a116.18,116.18,0,0,0,3.66,224.2,116.18,116.18,0,1,1-3.66-224.2Z"/><path class="cls-2" d="M278.18,143.26A116.18,116.18,0,0,1,92,268.26a116.18,116.18,0,1,0,186.19-125Z"/><path class="cls-1" d="M224.22,87.13A116.18,116.18,0,0,1,92,268.22,116.18,116.18,0,1,0,224.22,87.13Z"/><path class="cls-2" d="M154.3,52.81A116.18,116.18,0,0,1,92,268.21,116.18,116.18,0,1,0,154.3,52.81Z"/></g></g></svg>